<svg xmlns="http://www.w3.org/2000/svg" viewBox="0 0 380 380" width="380" height="380" fill="none"><g><animateTransform attributeName="transform" type="rotate" from="0 190.0 190.0" to="360 190.0 190.0" dur="42s" repeatCount="indefinite"/><circle cx="190.0" cy="190.0" r="176" stroke="#1f6f3f" stroke-width="1.5" opacity="0.7"/><circle cx="190.0" cy="190.0" r="168" stroke="#1f6f3f" stroke-width="3" opacity="0.45"/><line x1="340.00" y1="190.00" x2="358.00" y2="190.00" stroke="#2ea44f" stroke-width="9" stroke-linecap="round" opacity="0.95"/><line x1="296.07" y1="296.07" x2="308.79" y2="308.79" stroke="#2ea44f" stroke-width="9" stroke-linecap="round" opacity="0.95"/><line x1="190.00" y1="340.00" x2="190.00" y2="358.00" stroke="#2ea44f" stroke-width="9" stroke-linecap="round" opacity="0.95"/><line x1="83.93" y1="296.07" x2="71.21" y2="308.79" stroke="#2ea44f" stroke-width="9" stroke-linecap="round" opacity="0.95"/><line x1="40.00" y1="190.00" x2="22.00" y2="190.00" stroke="#2ea44f" stroke-width="9" stroke-linecap="round" opacity="0.95"/><line x1="83.93" y1="83.93" x2="71.21" y2="71.21" stroke="#2ea44f" stroke-width="9" stroke-linecap="round" opacity="0.95"/><line x1="190.00" y1="40.00" x2="190.00" y2="22.00" stroke="#2ea44f" stroke-width="9" stroke-linecap="round" opacity="0.95"/><line x1="296.07" y1="83.93" x2="308.79" y2="71.21" stroke="#2ea44f" stroke-width="9" stroke-linecap="round" opacity="0.95"/><line x1="342.00" y1="190.00" x2="356.00" y2="190.00" stroke="#0d1117" stroke-width="3" stroke-linecap="round" opacity="1.0"/><line x1="297.48" y1="297.48" x2="307.38" y2="307.38" stroke="#0d1117" stroke-width="3" stroke-linecap="round" opacity="1.0"/><line x1="190.00" y1="342.00" x2="190.00" y2="356.00" stroke="#0d1117" stroke-width="3" stroke-linecap="round" opacity="1.0"/><line x1="82.52" y1="297.48" x2="72.62" y2="307.38" stroke="#0d1117" stroke-width="3" stroke-linecap="round" opacity="1.0"/><line x1="38.00" y1="190.00" x2="24.00" y2="190.00" stroke="#0d1117" stroke-width="3" stroke-linecap="round" opacity="1.0"/><line x1="82.52" y1="82.52" x2="72.62" y2="72.62" stroke="#0d1117" stroke-width="3" stroke-linecap="round" opacity="1.0"/><line x1="190.00" y1="38.00" x2="190.00" y2="24.00" stroke="#0d1117" stroke-width="3" stroke-linecap="round" opacity="1.0"/><line x1="297.48" y1="82.52" x2="307.38" y2="72.62" stroke="#0d1117" stroke-width="3" stroke-linecap="round" opacity="1.0"/><line x1="360.53" y1="212.45" x2="367.47" y2="213.36" stroke="#1f6f3f" stroke-width="1.5" stroke-linecap="round" opacity="0.6"/><line x1="348.91" y1="255.82" x2="355.37" y2="258.50" stroke="#1f6f3f" stroke-width="1.5" stroke-linecap="round" opacity="0.6"/><line x1="326.46" y1="294.71" x2="332.01" y2="298.97" stroke="#1f6f3f" stroke-width="1.5" stroke-linecap="round" opacity="0.6"/><line x1="294.71" y1="326.46" x2="298.97" y2="332.01" stroke="#1f6f3f" stroke-width="1.5" stroke-linecap="round" opacity="0.6"/><line x1="255.82" y1="348.91" x2="258.50" y2="355.37" stroke="#1f6f3f" stroke-width="1.5" stroke-linecap="round" opacity="0.6"/><line x1="212.45" y1="360.53" x2="213.36" y2="367.47" stroke="#1f6f3f" stroke-width="1.5" stroke-linecap="round" opacity="0.6"/><line x1="167.55" y1="360.53" x2="166.64" y2="367.47" stroke="#1f6f3f" stroke-width="1.5" stroke-linecap="round" opacity="0.6"/><line x1="124.18" y1="348.91" x2="121.50" y2="355.37" stroke="#1f6f3f" stroke-width="1.5" stroke-linecap="round" opacity="0.6"/><line x1="85.29" y1="326.46" x2="81.03" y2="332.01" stroke="#1f6f3f" stroke-width="1.5" stroke-linecap="round" opacity="0.6"/><line x1="53.54" y1="294.71" x2="47.99" y2="298.97" stroke="#1f6f3f" stroke-width="1.5" stroke-linecap="round" opacity="0.6"/><line x1="31.09" y1="255.82" x2="24.63" y2="258.50" stroke="#1f6f3f" stroke-width="1.5" stroke-linecap="round" opacity="0.6"/><line x1="19.47" y1="212.45" x2="12.53" y2="213.36" stroke="#1f6f3f" stroke-width="1.5" stroke-linecap="round" opacity="0.6"/><line x1="19.47" y1="167.55" x2="12.53" y2="166.64" stroke="#1f6f3f" stroke-width="1.5" stroke-linecap="round" opacity="0.6"/><line x1="31.09" y1="124.18" x2="24.63" y2="121.50" stroke="#1f6f3f" stroke-width="1.5" stroke-linecap="round" opacity="0.6"/><line x1="53.54" y1="85.29" x2="47.99" y2="81.03" stroke="#1f6f3f" stroke-width="1.5" stroke-linecap="round" opacity="0.6"/><line x1="85.29" y1="53.54" x2="81.03" y2="47.99" stroke="#1f6f3f" stroke-width="1.5" stroke-linecap="round" opacity="0.6"/><line x1="124.18" y1="31.09" x2="121.50" y2="24.63" stroke="#1f6f3f" stroke-width="1.5" stroke-linecap="round" opacity="0.6"/><line x1="167.55" y1="19.47" x2="166.64" y2="12.53" stroke="#1f6f3f" stroke-width="1.5" stroke-linecap="round" opacity="0.6"/><line x1="212.45" y1="19.47" x2="213.36" y2="12.53" stroke="#1f6f3f" stroke-width="1.5" stroke-linecap="round" opacity="0.6"/><line x1="255.82" y1="31.09" x2="258.50" y2="24.63" stroke="#1f6f3f" stroke-width="1.5" stroke-linecap="round" opacity="0.6"/><line x1="294.71" y1="53.54" x2="298.97" y2="47.99" stroke="#1f6f3f" stroke-width="1.5" stroke-linecap="round" opacity="0.6"/><line x1="326.46" y1="85.29" x2="332.01" y2="81.03" stroke="#1f6f3f" stroke-width="1.5" stroke-linecap="round" opacity="0.6"/><line x1="348.91" y1="124.18" x2="355.37" y2="121.50" stroke="#1f6f3f" stroke-width="1.5" stroke-linecap="round" opacity="0.6"/><line x1="360.53" y1="167.55" x2="367.47" y2="166.64" stroke="#1f6f3f" stroke-width="1.5" stroke-linecap="round" opacity="0.6"/></g><g><animateTransform attributeName="transform" type="rotate" from="360 190.0 190.0" to="0 190.0 190.0" dur="27s" repeatCount="indefinite"/><circle cx="190.0" cy="190.0" r="132" stroke="#2ea44f" stroke-width="2"><animate attributeName="stroke" dur="9s" repeatCount="indefinite" values="#2ea44f;#2ea44f;#ff6b1a;#e8341c;#ff6b1a;#2ea44f;#2ea44f" keyTimes="0;0.45;0.58;0.66;0.74;0.87;1"/></circle><line x1="308.00" y1="190.00" x2="322.00" y2="190.00" stroke="#2ea44f" stroke-width="2.5" stroke-linecap="round" opacity="0.75"/><line x1="299.02" y1="235.16" x2="311.95" y2="240.51" stroke="#2ea44f" stroke-width="2.5" stroke-linecap="round" opacity="0.75"/><line x1="273.44" y1="273.44" x2="283.34" y2="283.34" stroke="#2ea44f" stroke-width="2.5" stroke-linecap="round" opacity="0.75"/><line x1="235.16" y1="299.02" x2="240.51" y2="311.95" stroke="#2ea44f" stroke-width="2.5" stroke-linecap="round" opacity="0.75"/><line x1="190.00" y1="308.00" x2="190.00" y2="322.00" stroke="#2ea44f" stroke-width="2.5" stroke-linecap="round" opacity="0.75"/><line x1="144.84" y1="299.02" x2="139.49" y2="311.95" stroke="#2ea44f" stroke-width="2.5" stroke-linecap="round" opacity="0.75"/><line x1="106.56" y1="273.44" x2="96.66" y2="283.34" stroke="#2ea44f" stroke-width="2.5" stroke-linecap="round" opacity="0.75"/><line x1="80.98" y1="235.16" x2="68.05" y2="240.51" stroke="#2ea44f" stroke-width="2.5" stroke-linecap="round" opacity="0.75"/><line x1="72.00" y1="190.00" x2="58.00" y2="190.00" stroke="#2ea44f" stroke-width="2.5" stroke-linecap="round" opacity="0.75"/><line x1="80.98" y1="144.84" x2="68.05" y2="139.49" stroke="#2ea44f" stroke-width="2.5" stroke-linecap="round" opacity="0.75"/><line x1="106.56" y1="106.56" x2="96.66" y2="96.66" stroke="#2ea44f" stroke-width="2.5" stroke-linecap="round" opacity="0.75"/><line x1="144.84" y1="80.98" x2="139.49" y2="68.05" stroke="#2ea44f" stroke-width="2.5" stroke-linecap="round" opacity="0.75"/><line x1="190.00" y1="72.00" x2="190.00" y2="58.00" stroke="#2ea44f" stroke-width="2.5" stroke-linecap="round" opacity="0.75"/><line x1="235.16" y1="80.98" x2="240.51" y2="68.05" stroke="#2ea44f" stroke-width="2.5" stroke-linecap="round" opacity="0.75"/><line x1="273.44" y1="106.56" x2="283.34" y2="96.66" stroke="#2ea44f" stroke-width="2.5" stroke-linecap="round" opacity="0.75"/><line x1="299.02" y1="144.84" x2="311.95" y2="139.49" stroke="#2ea44f" stroke-width="2.5" stroke-linecap="round" opacity="0.75"/><line x1="263.54" y1="263.54" x2="283.34" y2="283.34" stroke="#2ea44f" stroke-width="5" stroke-linecap="round" opacity="0.9"/><line x1="116.46" y1="263.54" x2="96.66" y2="283.34" stroke="#2ea44f" stroke-width="5" stroke-linecap="round" opacity="0.9"/><line x1="116.46" y1="116.46" x2="96.66" y2="96.66" stroke="#2ea44f" stroke-width="5" stroke-linecap="round" opacity="0.9"/><line x1="263.54" y1="116.46" x2="283.34" y2="96.66" stroke="#2ea44f" stroke-width="5" stroke-linecap="round" opacity="0.9"/></g><circle cx="190.0" cy="190.0" r="104" stroke="#1f6f3f" stroke-width="1.2" opacity="0.8"/><path d="M190.00,190.00L190.01,189.77L190.05,189.53L190.11,189.30L190.20,189.08L190.30,188.86L190.44,188.66L190.59,188.46L190.77,188.28L190.96,188.11L191.18,187.96L191.41,187.83L191.66,187.72L191.92,187.62L192.20,187.55L192.50,187.50L192.80,187.48L193.11,187.48L193.43,187.51L193.75,187.57L194.08,187.65L194.40,187.76L194.73,187.89L195.05,188.06L195.37,188.25L195.68,188.48L195.98,188.73L196.27,189.01L196.55,189.31L196.81,189.64L197.06,190.00L197.28,190.38L197.49,190.79L197.67,191.21L197.83,191.66L197.95,192.13L198.06,192.62L198.13,193.12L198.17,193.64L198.18,194.17L198.15,194.71L198.09,195.25L197.99,195.81L197.86,196.37L197.69,196.93L197.49,197.49L197.24,198.04L196.96,198.59L196.64,199.14L196.28,199.67L195.88,200.19L195.45,200.69L194.98,201.18L194.47,201.64L193.93,202.08L193.35,202.50L192.74,202.89L192.10,203.25L191.43,203.57L190.73,203.86L190.00,204.12L189.25,204.33L188.48,204.51L187.68,204.64L186.87,204.73L186.04,204.77L185.20,204.77L184.35,204.72L183.49,204.62L182.63,204.47L181.76,204.26L180.90,204.01L180.04,203.71L179.19,203.35L178.35,202.94L177.52,202.48L176.71,201.97L175.92,201.40L175.15,200.79L174.41,200.12L173.70,199.41L173.02,198.65L172.37,197.85L171.77,197.00L171.20,196.11L170.68,195.18L170.21,194.21L169.78,193.20L169.41,192.16L169.09,191.10L168.82,190.00L168.62,188.88L168.47,187.74L168.39,186.58L168.37,185.40L168.41,184.21L168.52,183.02L168.69,181.82L168.93,180.62L169.24,179.42L169.62,178.24L170.07,177.06L170.58,175.89L171.17,174.75L171.81,173.63L172.53,172.53L173.31,171.47L174.16,170.43L175.06,169.44L176.03,168.49L177.06,167.59L178.14,166.73L179.28,165.93L180.47,165.18L181.71,164.49L183.00,163.86L184.33,163.30L185.69,162.81L187.10,162.39L188.53,162.04L190.00,161.76L191.49,161.57L193.00,161.45L194.53,161.42L196.07,161.46L197.61,161.59L199.16,161.80L200.71,162.10L202.25,162.49L203.78,162.96L205.29,163.51L206.79,164.15L208.26,164.87L209.69,165.68L211.10,166.57L212.46,167.54L213.78,168.59L215.05,169.71L216.27,170.91L217.43,172.19L218.53,173.53L219.56,174.94L220.52,176.41L221.41,177.94L222.22,179.53L222.96,181.17L223.60,182.86L224.16,184.59L224.63,186.36L225.01,188.17L225.29,190.00L225.48,191.86L225.57,193.74L225.56,195.63L225.44,197.53L225.23,199.44L224.91,201.34L224.49,203.24L223.96,205.12L223.33,206.98L222.60,208.82L221.77,210.63L220.84,212.40L219.81,214.14L218.68,215.82L217.45,217.45L216.14,219.03L214.73,220.54L213.23,221.98L211.66,223.35L210.00,224.64L208.27,225.85L206.46,226.97L204.59,228.00L202.65,228.94L200.66,229.77L198.61,230.51L196.52,231.13L194.38,231.65L192.20,232.06L190.00,232.35L187.77,232.53L185.52,232.59L183.26,232.53L181.00,232.35L178.73,232.05L176.48,231.62L174.23,231.08L172.01,230.41L169.81,229.62L167.65,228.72L165.52,227.69L163.45,226.55L161.42,225.29L159.46,223.92L157.56,222.44L155.73,220.86L153.98,219.17L152.31,217.38L150.73,215.50L149.25,213.53L147.86,211.47L146.58,209.33L145.41,207.12L144.35,204.83L143.41,202.48L142.59,200.08L141.89,197.62L141.33,195.12L140.89,192.57L140.59,190.00L140.42,187.40L140.39,184.79L140.50,182.16L140.75,179.53L141.14,176.91L141.66,174.29L142.33,171.70L143.14,169.14L144.09,166.61L145.17,164.12L146.39,161.68L147.74,159.30L149.22,156.98L150.83,154.73L152.56,152.56L154.42,150.48L156.39,148.49L158.47,146.60L160.65,144.81L162.94,143.13L165.32,141.57L167.80,140.13L170.35,138.82L172.99,137.64L175.69,136.59L178.45,135.68L181.28,134.92L184.15,134.31L187.06,133.84L190.00,133.53L192.97,133.37L195.95,133.37L198.94,133.53L201.94,133.84L204.92,134.32L207.89,134.95L210.83,135.74L213.73,136.69L216.60,137.80L219.41,139.06L222.17,140.47L224.85,142.03L227.46,143.74L229.99,145.59L232.43,147.57L234.76,149.69L236.99,151.94L239.11,154.32L241.11,156.81L242.98,159.41L244.72,162.12L246.32,164.93L247.77,167.82L249.08,170.80L250.23,173.86L251.22,176.99L252.05,180.17L252.71,183.41L253.21,186.69L253.53,190.00L253.68,193.34L253.65,196.69L253.44,200.05L253.06,203.40L252.50,206.75L251.76,210.07L250.85,213.36L249.76,216.61L248.49,219.80L247.06,222.94L245.45,226.01L243.68,229.00L241.75,231.91L239.66,234.71L237.42,237.42L235.03,240.01L232.50,242.48L229.83,244.82L227.04,247.03L224.12,249.09L221.08,251.01L217.95,252.77L214.71,254.36L211.38,255.79L207.97,257.05L204.48,258.13L200.93,259.02L197.33,259.73L193.68,260.26L190.00,260.59L186.29,260.73L182.57,260.67L178.85,260.42L175.13,259.97L171.43,259.32L167.75,258.48L164.11,257.44L160.52,256.21L156.99,254.78L153.53,253.17L150.15,251.37L146.85,249.39L143.65,247.23L140.56,244.91L137.59,242.41L134.74,239.75L132.03,236.94L129.47,233.98L127.05,230.88L124.79,227.65L122.70,224.29L120.79,220.82L119.05,217.24L117.50,213.56L116.14,209.79L114.97,205.95L114.01,202.04L113.25,198.07L112.69,194.05L112.35,190.00L112.22,185.92L112.31,181.83L112.61,177.74L113.13,173.66L113.86,169.60L114.81,165.57L115.97,161.58L117.35,157.65L118.93,153.79L120.72,150.00L122.71,146.30L124.90,142.70L127.28,139.21L129.85,135.84L132.60,132.60L135.52,129.50L138.62,126.55L141.87,123.76L145.28,121.13L148.82,118.68L152.51,116.41L156.31,114.34L160.23,112.46L164.26,110.78L168.38,109.32L172.58,108.07L176.86,107.03L181.20,106.23L185.58,105.65L190.00,105.29L194.45,105.18L198.90,105.29L203.36,105.64L207.81,106.22L212.23,107.04L216.61,108.10L220.95,109.38L225.22,110.90L229.42,112.64L233.53,114.60L237.54,116.79L241.45,119.19L245.23,121.79L248.88,124.60L252.39,127.61L255.75,130.80L258.94,134.18L261.95,137.72L264.79,141.43L267.43,145.29L269.88,149.30L272.11,153.44L274.13,157.70L275.93,162.08L277.50,166.55L278.84,171.12L279.94,175.76L280.79,180.46L281.40,185.21L281.76,190.00L281.87,194.81L281.73,199.64L281.33,204.47L280.68,209.27L279.77,214.05L278.62,218.79L277.21,223.48L275.55,228.09L273.65,232.62L271.51,237.06L269.13,241.39L266.52,245.60L263.69,249.67L260.64,253.61L257.38,257.38L253.92,260.99L250.27,264.42L246.43,267.67" stroke="#2ea44f" stroke-width="7" stroke-linecap="round"><animate attributeName="stroke" dur="9s" repeatCount="indefinite" values="#2ea44f;#2ea44f;#ff6b1a;#e8341c;#ff6b1a;#2ea44f;#2ea44f" keyTimes="0;0.45;0.58;0.66;0.74;0.87;1"/></path><circle cx="190.0" cy="190.0" r="5" fill="#2ea44f"><animate attributeName="fill" dur="9s" repeatCount="indefinite" values="#2ea44f;#2ea44f;#e8341c;#2ea44f;#2ea44f" keyTimes="0;0.5;0.66;0.85;1"/></circle><g><animateTransform attributeName="transform" type="rotate" from="360 190.0 190.0" to="0 190.0 190.0" dur="84s" repeatCount="indefinite"/><circle cx="293.24" cy="293.24" r="6" stroke="#2ea44f" stroke-width="2" opacity="0.9"/><circle cx="86.76" cy="293.24" r="6" stroke="#2ea44f" stroke-width="2" opacity="0.9"/><circle cx="86.76" cy="86.76" r="6" stroke="#2ea44f" stroke-width="2" opacity="0.9"/><circle cx="293.24" cy="86.76" r="6" stroke="#2ea44f" stroke-width="2" opacity="0.9"/></g></svg>
